<svg width="1032" height="299" viewBox="0 0 1032 299" fill="none" xmlns="http://www.w3.org/2000/svg">
<path d="M101.088 169L100.8 115.576L74.88 159.064H62.208L36.432 117.016V169H10.08V68.2H33.552L68.976 126.376L103.536 68.2H127.008L127.296 169H101.088ZM225.951 130.12C225.951 130.312 225.807 132.568 225.519 136.888H168.783C169.935 140.92 172.143 144.04 175.407 146.248C178.767 148.36 182.943 149.416 187.935 149.416C191.679 149.416 194.895 148.888 197.583 147.832C200.367 146.776 203.151 145.048 205.935 142.648L220.335 157.624C212.751 166.072 201.663 170.296 187.071 170.296C177.951 170.296 169.935 168.568 163.023 165.112C156.111 161.656 150.735 156.856 146.895 150.712C143.151 144.568 141.279 137.608 141.279 129.832C141.279 122.152 143.103 115.288 146.751 109.24C150.495 103.096 155.631 98.296 162.159 94.84C168.687 91.384 176.031 89.656 184.191 89.656C191.967 89.656 199.023 91.288 205.359 94.552C211.695 97.72 216.687 102.376 220.335 108.52C224.079 114.568 225.951 121.768 225.951 130.12ZM184.335 109.096C180.111 109.096 176.559 110.296 173.679 112.696C170.895 115.096 169.119 118.36 168.351 122.488H200.319C199.551 118.36 197.727 115.096 194.847 112.696C192.063 110.296 188.559 109.096 184.335 109.096ZM266.933 170.296C260.405 170.296 253.973 169.576 247.637 168.136C241.301 166.6 236.213 164.632 232.373 162.232L240.581 143.512C244.133 145.72 248.357 147.496 253.253 148.84C258.149 150.088 262.997 150.712 267.797 150.712C272.213 150.712 275.333 150.28 277.157 149.416C279.077 148.456 280.037 147.112 280.037 145.384C280.037 143.656 278.885 142.456 276.581 141.784C274.373 141.016 270.821 140.296 265.925 139.624C259.685 138.856 254.357 137.848 249.941 136.6C245.621 135.352 241.877 133.048 238.709 129.688C235.541 126.328 233.957 121.624 233.957 115.576C233.957 110.584 235.445 106.168 238.421 102.328C241.397 98.392 245.717 95.32 251.381 93.112C257.141 90.808 264.005 89.656 271.973 89.656C277.637 89.656 283.253 90.232 288.821 91.384C294.389 92.536 299.045 94.168 302.789 96.28L294.581 114.856C287.669 111.016 280.181 109.096 272.117 109.096C267.797 109.096 264.629 109.624 262.613 110.68C260.597 111.64 259.589 112.936 259.589 114.568C259.589 116.392 260.693 117.688 262.901 118.456C265.109 119.128 268.757 119.848 273.845 120.616C280.277 121.576 285.605 122.68 289.829 123.928C294.053 125.176 297.701 127.48 300.773 130.84C303.941 134.104 305.525 138.712 305.525 144.664C305.525 149.56 304.037 153.976 301.061 157.912C298.085 161.752 293.669 164.776 287.813 166.984C282.053 169.192 275.093 170.296 266.933 170.296ZM345.683 170.296C339.155 170.296 332.723 169.576 326.387 168.136C320.051 166.6 314.963 164.632 311.123 162.232L319.331 143.512C322.883 145.72 327.107 147.496 332.003 148.84C336.899 150.088 341.747 150.712 346.547 150.712C350.963 150.712 354.083 150.28 355.907 149.416C357.827 148.456 358.787 147.112 358.787 145.384C358.787 143.656 357.635 142.456 355.331 141.784C353.123 141.016 349.571 140.296 344.675 139.624C338.435 138.856 333.107 137.848 328.691 136.6C324.371 135.352 320.627 133.048 317.459 129.688C314.291 126.328 312.707 121.624 312.707 115.576C312.707 110.584 314.195 106.168 317.171 102.328C320.147 98.392 324.467 95.32 330.131 93.112C335.891 90.808 342.755 89.656 350.723 89.656C356.387 89.656 362.003 90.232 367.571 91.384C373.139 92.536 377.795 94.168 381.539 96.28L373.331 114.856C366.419 111.016 358.931 109.096 350.867 109.096C346.547 109.096 343.379 109.624 341.363 110.68C339.347 111.64 338.339 112.936 338.339 114.568C338.339 116.392 339.443 117.688 341.651 118.456C343.859 119.128 347.507 119.848 352.595 120.616C359.027 121.576 364.355 122.68 368.579 123.928C372.803 125.176 376.451 127.48 379.523 130.84C382.691 134.104 384.275 138.712 384.275 144.664C384.275 149.56 382.787 153.976 379.811 157.912C376.835 161.752 372.419 164.776 366.563 166.984C360.803 169.192 353.843 170.296 345.683 170.296ZM429.329 89.656C442.289 89.656 452.177 92.632 458.993 98.584C465.809 104.44 469.217 113.464 469.217 125.656V169H443.729V158.92C439.793 166.504 432.113 170.296 420.689 170.296C414.641 170.296 409.409 169.24 404.993 167.128C400.577 165.016 397.217 162.184 394.913 158.632C392.705 154.984 391.601 150.856 391.601 146.248C391.601 138.856 394.433 133.144 400.097 129.112C405.761 124.984 414.497 122.92 426.305 122.92H441.857C441.377 114.664 435.857 110.536 425.297 110.536C421.553 110.536 417.761 111.16 413.921 112.408C410.081 113.56 406.817 115.192 404.129 117.304L394.913 98.728C399.233 95.848 404.465 93.64 410.609 92.104C416.849 90.472 423.089 89.656 429.329 89.656ZM428.321 153.016C431.489 153.016 434.273 152.248 436.673 150.712C439.073 149.176 440.801 146.92 441.857 143.944V137.176H430.049C422.081 137.176 418.097 139.816 418.097 145.096C418.097 147.496 419.009 149.416 420.833 150.856C422.657 152.296 425.153 153.016 428.321 153.016ZM571.564 90.952V154.744C571.564 169.24 567.628 180.088 559.756 187.288C551.884 194.584 540.556 198.232 525.772 198.232C518.092 198.232 510.892 197.368 504.172 195.64C497.452 193.912 491.74 191.368 487.036 188.008L496.972 168.856C500.14 171.448 504.124 173.464 508.924 174.904C513.82 176.44 518.62 177.208 523.324 177.208C530.524 177.208 535.804 175.624 539.164 172.456C542.524 169.288 544.204 164.584 544.204 158.344V155.752C538.924 161.896 531.196 164.968 521.02 164.968C514.108 164.968 507.724 163.432 501.868 160.36C496.012 157.192 491.356 152.776 487.9 147.112C484.444 141.352 482.716 134.728 482.716 127.24C482.716 119.848 484.444 113.32 487.9 107.656C491.356 101.896 496.012 97.48 501.868 94.408C507.724 91.24 514.108 89.656 521.02 89.656C532.156 89.656 540.316 93.256 545.5 100.456V90.952H571.564ZM527.5 143.224C532.396 143.224 536.428 141.736 539.596 138.76C542.86 135.784 544.492 131.944 544.492 127.24C544.492 122.536 542.908 118.744 539.74 115.864C536.572 112.888 532.492 111.4 527.5 111.4C522.508 111.4 518.38 112.888 515.116 115.864C511.948 118.744 510.364 122.536 510.364 127.24C510.364 131.944 511.996 135.784 515.26 138.76C518.524 141.736 522.604 143.224 527.5 143.224ZM673.095 90.952V154.744C673.095 169.24 669.159 180.088 661.287 187.288C653.415 194.584 642.087 198.232 627.303 198.232C619.623 198.232 612.423 197.368 605.703 195.64C598.983 193.912 593.271 191.368 588.567 188.008L598.503 168.856C601.671 171.448 605.655 173.464 610.455 174.904C615.351 176.44 620.151 177.208 624.855 177.208C632.055 177.208 637.335 175.624 640.695 172.456C644.055 169.288 645.735 164.584 645.735 158.344V155.752C640.455 161.896 632.727 164.968 622.551 164.968C615.639 164.968 609.255 163.432 603.399 160.36C597.543 157.192 592.887 152.776 589.431 147.112C585.975 141.352 584.247 134.728 584.247 127.24C584.247 119.848 585.975 113.32 589.431 107.656C592.887 101.896 597.543 97.48 603.399 94.408C609.255 91.24 615.639 89.656 622.551 89.656C633.687 89.656 641.847 93.256 647.031 100.456V90.952H673.095ZM629.031 143.224C633.927 143.224 637.959 141.736 641.127 138.76C644.391 135.784 646.023 131.944 646.023 127.24C646.023 122.536 644.439 118.744 641.271 115.864C638.103 112.888 634.023 111.4 629.031 111.4C624.039 111.4 619.911 112.888 616.647 115.864C613.479 118.744 611.895 122.536 611.895 127.24C611.895 131.944 613.527 135.784 616.791 138.76C620.055 141.736 624.135 143.224 629.031 143.224ZM690.675 90.952H718.035V169H690.675V90.952ZM704.355 82.312C699.363 82.312 695.331 80.92 692.259 78.136C689.187 75.352 687.651 71.896 687.651 67.768C687.651 63.64 689.187 60.184 692.259 57.4C695.331 54.616 699.363 53.224 704.355 53.224C709.347 53.224 713.379 54.568 716.451 57.256C719.523 59.848 721.059 63.208 721.059 67.336C721.059 71.656 719.523 75.256 716.451 78.136C713.379 80.92 709.347 82.312 704.355 82.312ZM774.983 170.296C766.631 170.296 759.095 168.568 752.375 165.112C745.655 161.656 740.375 156.856 736.535 150.712C732.791 144.568 730.919 137.608 730.919 129.832C730.919 122.152 732.791 115.24 736.535 109.096C740.375 102.952 745.607 98.2 752.231 94.84C758.951 91.384 766.535 89.656 774.983 89.656C783.431 89.656 791.015 91.384 797.735 94.84C804.455 98.2 809.687 102.952 813.431 109.096C817.175 115.144 819.047 122.056 819.047 129.832C819.047 137.608 817.175 144.568 813.431 150.712C809.687 156.856 804.455 161.656 797.735 165.112C791.015 168.568 783.431 170.296 774.983 170.296ZM774.983 148.552C779.783 148.552 783.719 146.92 786.791 143.656C789.863 140.296 791.399 135.688 791.399 129.832C791.399 124.072 789.863 119.56 786.791 116.296C783.719 113.032 779.783 111.4 774.983 111.4C770.183 111.4 766.247 113.032 763.175 116.296C760.103 119.56 758.567 124.072 758.567 129.832C758.567 135.688 760.103 140.296 763.175 143.656C766.247 146.92 770.183 148.552 774.983 148.552Z" fill="black"/>
<g clip-path="url(#clip0)">
<path d="M959.667 108.621C957.97 107.292 955.544 107.604 954.225 109.29L927.795 143.136C847.222 207.015 739.935 190.482 738.857 190.307C736.744 189.962 734.753 191.396 734.409 193.51C734.132 195.201 734.996 196.815 736.435 197.569C736.794 197.757 737.189 197.892 737.61 197.962C738.722 198.141 849.628 215.311 932.981 148.919C933.221 148.729 933.436 148.511 933.622 148.272L960.336 114.062C961.655 112.376 961.354 109.938 959.667 108.621Z" fill="black"/>
<path d="M986.541 79.7764C986.065 78.9472 985.297 78.3238 984.386 78.0217C969.063 73.0071 950.127 80.2306 937.267 95.9985C924.405 111.772 921.155 131.758 929.179 145.735C929.548 146.379 930.092 146.898 930.742 147.239C930.931 147.338 931.129 147.419 931.333 147.489C946.657 152.505 965.592 145.28 978.452 129.513C991.314 113.739 994.565 93.7529 986.541 79.7764ZM972.442 124.609C962.187 137.185 947.1 143.564 935.196 140.537C929.819 129.512 933.022 113.47 943.278 100.897C953.533 88.3192 968.62 81.9398 980.523 84.9687C985.9 95.9958 982.698 112.036 972.442 124.609Z" fill="black"/>
<path d="M897.36 149.756C904.627 128.432 900.324 106.428 886.653 95.0042C885.919 94.392 884.981 94.0693 884.023 94.1058C866.226 94.7699 849.387 109.547 842.118 130.874C834.851 152.198 839.153 174.201 852.825 185.626C853.038 185.805 853.268 185.959 853.512 186.086C854.106 186.398 854.776 186.551 855.456 186.525C873.249 185.861 890.09 171.082 897.36 149.756ZM856.671 178.676C846.519 169.113 843.531 150.772 849.461 133.377C855.39 115.983 868.945 103.302 882.81 101.957C892.962 111.518 895.951 129.86 890.022 147.255C884.094 164.647 870.536 177.329 856.671 178.676Z" fill="black"/>
<path d="M980.451 198.258C978.643 180.577 962.806 164.674 941.01 158.69C919.222 152.707 897.499 158.291 886.954 172.59C886.382 173.365 886.121 174.327 886.218 175.286C887.636 189.166 897.701 201.946 912.497 209.696C916.553 211.821 920.969 213.567 925.657 214.854C947.444 220.838 969.17 215.253 979.715 200.954C980.287 200.18 980.548 199.217 980.451 198.258ZM927.71 207.379C909.929 202.495 896.372 189.735 894.131 176.002C903.036 165.334 921.181 161.288 938.958 166.17C956.738 171.053 970.294 183.811 972.539 197.546C963.631 208.214 945.486 212.263 927.71 207.379Z" fill="black"/>
<path d="M872.167 240.446C875.472 225.826 867.094 208.902 851.321 198.329C835.549 187.766 816.701 186.441 804.419 195.04C803.63 195.594 803.073 196.423 802.861 197.362C799.558 211.984 807.936 228.907 823.707 239.479C825.419 240.626 827.168 241.666 828.942 242.596C843.494 250.218 859.66 250.435 870.609 242.768C871.399 242.213 871.955 241.386 872.167 240.446ZM828.022 233.039C815.664 224.754 808.504 211.616 810.144 200.567C819.754 194.858 834.629 196.491 847 204.772C859.36 213.058 866.518 226.195 864.878 237.244C855.271 242.954 840.386 241.316 828.022 233.039Z" fill="black"/>
<path d="M871.885 139.202C871.769 137.066 869.941 135.426 867.805 135.54C865.668 135.655 864.028 137.483 864.143 139.62C864.154 139.812 865.018 159.019 851.553 182.077C850.473 183.926 851.098 186.3 852.946 187.38C853 187.411 853.052 187.44 853.106 187.468C854.93 188.423 857.201 187.784 858.249 185.987C872.873 160.943 871.931 140.077 871.885 139.202Z" fill="black"/>
<path d="M935.462 186.27C935.681 184.142 934.137 182.228 932.005 182.015C931.804 181.993 911.664 179.813 891.855 169.437C889.959 168.444 887.615 169.177 886.622 171.073C885.629 172.968 886.362 175.313 888.257 176.306C909.372 187.365 930.327 189.636 931.207 189.727C933.337 189.946 935.242 188.398 935.462 186.27Z" fill="black"/>
</g>
<defs>
<clipPath id="clip0">
<rect width="221" height="221" fill="white" transform="translate(835.542) rotate(27.6449)"/>
</clipPath>
</defs>
</svg>
